<svg width="16" height="18" viewBox="0 0 16 18" fill="none" xmlns="http://www.w3.org/2000/svg">
<path d="M15.5117 7.60958L8.53009 1.1865C8.30312 0.977685 8.00424 0.864681 7.6959 0.871101C7.38756 0.877522 7.09364 1.00287 6.87556 1.22095L0.45452 7.64203L0.125 7.97151V17.4375H6.3125V11.5313H9.6875V17.4375H15.875V7.94384L15.5117 7.60958ZM7.72009 1.99586C7.73 1.99586 7.72388 1.99801 7.71963 2.00219C7.71523 1.99801 7.71017 1.99586 7.72009 1.99586ZM14.75 16.3125H10.8125V11.5313C10.8125 11.2329 10.694 10.9467 10.483 10.7358C10.272 10.5248 9.98587 10.4063 9.6875 10.4063H6.3125C6.01413 10.4063 5.72798 10.5248 5.517 10.7358C5.30603 10.9467 5.1875 11.2329 5.1875 11.5313V16.3125H1.25V8.43751L7.72009 2.01643C7.72054 2.01601 7.72058 2.01562 7.72093 2.0152L14.75 8.43751V16.3125Z" fill="#BDBDBD"/>
</svg>
